<svg id="Layer_1" data-name="Layer 1" xmlns="http://www.w3.org/2000/svg" viewBox="0 0 221.12 234.66"><defs><style>.cls-1{fill:#0a1728;}.cls-2{fill:#b8960c;}</style></defs><path class="cls-1" d="M494,472.76,459.94,436l-.59.34a15.43,15.43,0,0,0-.24,2.13c.11,15.76.11,31.53.44,47.29a100.11,100.11,0,0,0,1.73,13.72,91.74,91.74,0,0,0,2.4,11.78,95.71,95.71,0,0,0,11,24.68,83.23,83.23,0,0,0,24.91,25.29c.68.43,1.27,1,2,1.39,1.68,1,2.53.49,2.56-1.48.07-4.95.13-9.89.12-14.84q0-33.1-.05-66.22,0-54.54,0-109.08c0-3.14,0-3.08,3.24-3.66,4.67-.84,9.32-1.79,14-2.67,3.26-.62,6.53-1.21,9.79-1.81,2.39-.43,2.79-.19,2.8,2.24,0,9,0,18.05,0,27.08q0,68.35,0,136.72,0,31.53,0,63.07c0,1.23-.06,2.47-.12,3.71s-.49,1.84-1.88,1.31c-5.51-2.1-11.09-4-16.54-6.24a166.89,166.89,0,0,1-30.14-16.18c-12.09-8.19-23-17.59-32.1-29.12a103.79,103.79,0,0,1-17.46-31.62A179.47,179.47,0,0,1,431,494.63c-1.61-7.65-1.52-15.46-1.52-23.25q0-43.77,0-87.56c0-1.91.4-2.86,2.54-3.15,4.94-.7,9.83-1.76,14.76-2.53a3,3,0,0,1,2.35.89c7,7.83,14,15.76,21,23.61q11.58,12.93,23.29,25.73a5.71,5.71,0,0,1,1.63,4.14c0,11.68.07,23.37.08,35.06,0,1.62-.21,3.24-.32,4.86Z" transform="translate(-429.44 -362.62)"/><path class="cls-2" d="M650.15,456.06,642.77,451c-7.34-5.05-14.66-10.14-22-15.15a2.79,2.79,0,0,1-1.43-2.55q0-14.37-.07-28.75c0-.24,0-.49,0-.74.17-3.81,0-3.93-3.71-4.59-4.86-.85-9.69-1.85-14.56-2.66-6.38-1.06-12.78-2-19.17-3-2.18-.35-4.36-.73-6.87-1.16-.09,2.57-.22,5.06-.24,7.56-.06,10.69-.15,21.39-.1,32.08,0,4.87,2.25,8.48,6.43,11.24,7.6,5,14.94,10.41,22.42,15.61,4.75,3.29,9.57,6.46,14.31,9.76,6.87,4.76,13.68,9.59,20.53,14.37,2.87,2,5.78,4,8.67,5.94,1.71,1.17,2.65,2.35,2.25,4.84a153.87,153.87,0,0,1-3.69,16.69,97.57,97.57,0,0,1-12.95,27.42,117.45,117.45,0,0,1-21.33,24.17,155.16,155.16,0,0,1-37.19,24.39c-8,3.66-16.33,6.75-24.55,10-3.71,1.46-3.83,1.29-3.83-2.57q0-55.38.07-110.75a4.55,4.55,0,0,1,0-1.11c.19-.68.47-1.34.71-2a15.54,15.54,0,0,1,1.71.91q8.06,5.68,16.09,11.4c2.7,1.93,5.33,3.94,8.05,5.83a3.36,3.36,0,0,1,1.44,3.14q0,29.4,0,58.81c0,1.27.14,2.55.24,4.21a30.2,30.2,0,0,0,3.19-1.61c9.28-6.19,17.78-13.21,24.09-22.55a73,73,0,0,0,8.14-15.81,61.66,61.66,0,0,0,3.67-17.18c.19-2.75-.94-4.49-3.12-6-7.81-5.38-15.52-10.9-23.31-16.3-8.86-6.14-17.78-12.19-26.64-18.32-4.49-3.11-9.07-6.24-11.29-11.52a31.78,31.78,0,0,1-2.44-8.36,127.1,127.1,0,0,1-.72-14.21c-.06-21.65,0-43.29,0-64.94,0-.43,0-.86,0-1.29.14-3.66.93-4.08,4.57-3.22,4,.94,8,1.57,12.09,2.31q6.63,1.23,13.27,2.4c4.78.84,9.56,1.64,14.34,2.48q6.63,1.15,13.26,2.36l17.45,3.18c5.21.95,10.41,1.92,15.63,2.84,4.18.74,8.36,1.46,12.56,2.12,1.39.21,1.77.9,1.77,2.24q0,35.43,0,70.87A17,17,0,0,1,650.15,456.06Z" transform="translate(-429.44 -362.62)"/></svg>